/* XPM */
static const char *checkers_xpm[] = {
/* columns rows colors chars-per-pixel */
"48 48 218 2 ",
"   c gray92",
".  c #EEEEEE",
"X  c #989898",
"o  c #484848",
"O  c gray19",
"+  c #313131",
"@  c #353535",
"#  c gray21",
"$  c gray29",
"%  c gray61",
"&  c gray95",
"*  c #EAEAEA",
"=  c gray42",
"-  c #070707",
";  c gray9",
":  c #2F2F2F",
">  c gray18",
",  c #1D1D1D",
"<  c gray10",
"1  c #181818",
"2  c gray6",
"3  c #747474",
"4  c #F1F1F1",
"5  c #929292",
"6  c #060606",
"7  c #494949",
"8  c gray80",
"9  c #E4E4E4",
"0  c #E2E2E2",
"q  c gray89",
"w  c #E1E1E1",
"e  c gray90",
"r  c gray87",
"t  c gray13",
"y  c gray12",
"u  c #202020",
"i  c #9B9B9B",
"p  c #3E3E3E",
"a  c gray11",
"s  c #D0D0D0",
"d  c #F9F9F9",
"f  c #E9E9E9",
"g  c #ECECEC",
"h  c gray91",
"j  c gray93",
"k  c #F4F4F4",
"l  c #191919",
"z  c #1E1E1E",
"x  c #222222",
"c  c #151515",
"v  c #252525",
"b  c #393939",
"n  c #E7E7E7",
"m  c #E6E6E6",
"M  c gray97",
"N  c #CECECE",
"B  c gray77",
"V  c gray81",
"C  c #3A3A3A",
"Z  c gray27",
"A  c #1B1B1B",
"S  c gray15",
"D  c gray22",
"F  c gray96",
"G  c #D5D5D5",
"H  c gray48",
"J  c gray20",
"K  c #0E0E0E",
"L  c #7B7B7B",
"P  c #D8D8D8",
"I  c #111111",
"U  c #979797",
"Y  c white",
"T  c #959595",
"R  c #F6F6F6",
"E  c gray66",
"W  c #232323",
"Q  c #020202",
"!  c #2A2A2A",
"~  c #5A5A5A",
"^  c #6C6C6C",
"/  c gray16",
"(  c #010101",
")  c #272727",
"_  c #AFAFAF",
"`  c #676767",
"'  c gray74",
"]  c #A9A9A9",
"[  c #EFEFEF",
"{  c #646464",
"}  c #343434",
"|  c #A7A7A7",
" . c gray57",
".. c #8E8E8E",
"X. c gray7",
"o. c #FBFBFB",
"O. c gray50",
"+. c #101010",
"@. c #131313",
"#. c gray51",
"$. c #FDFDFD",
"%. c gray39",
"&. c gray83",
"*. c #B6B6B6",
"=. c gray99",
"-. c #282828",
";. c gray34",
":. c gray4",
">. c #090909",
",. c #F8F8F8",
"<. c #323232",
"1. c gray47",
"2. c gray55",
"3. c #7E7E7E",
"4. c #9A9A9A",
"5. c #868686",
"6. c gray59",
"7. c #DFDFDF",
"8. c gray8",
"9. c #5B5B5B",
"0. c #F3F3F3",
"q. c #555555",
"w. c #D2D2D2",
"e. c #3C3C3C",
"r. c gray76",
"t. c gray5",
"y. c gray40",
"u. c #C8C8C8",
"i. c #464646",
"p. c #AAAAAA",
"a. c #AEAEAE",
"s. c #FEFEFE",
"d. c #434343",
"f. c #161616",
"g. c gray35",
"h. c gray33",
"j. c gray23",
"k. c gray75",
"l. c gray88",
"z. c #DDDDDD",
"x. c gray14",
"c. c gray17",
"v. c #E9E8E9",
"b. c #7C7C7C",
"n. c #898989",
"m. c #818181",
"M. c gray53",
"N. c #8B8B8B",
"B. c #D7D7D7",
"V. c gray70",
"C. c gainsboro",
"Z. c #5D5D5D",
"A. c #606060",
"S. c gray98",
"D. c gray69",
"F. c #888888",
"G. c #B1B1B1",
"H. c gray38",
"J. c #2C2C2C",
"K. c gray54",
"L. c #535353",
"P. c gray32",
"I. c #C5C5C5",
"U. c #B2B2B2",
"Y. c #C6C6C6",
"T. c gray85",
"R. c #838383",
"E. c gray56",
"W. c gray86",
"Q. c #8D8D8D",
"!. c #CBCBCB",
"~. c gray94",
"^. c #2D2D2D",
"/. c #3F3F3F",
"(. c gray25",
"). c gray24",
"_. c gray60",
"`. c gray46",
"'. c #0C0C0C",
"]. c #777777",
"[. c gray72",
"{. c #A5A5A5",
"}. c #B9B9B9",
"|. c #A4A4A4",
" X c gray1",
".X c #5F5F5F",
"XX c gray44",
"oX c gray67",
"OX c #656565",
"+X c #ACACAC",
"@X c #373737",
"#X c #9D9D9D",
"$X c gray52",
"%X c #E8E7E8",
"&X c #BCBCBC",
"*X c #575657",
"=X c gray82",
"-X c gray28",
";X c gray26",
":X c #EDECED",
">X c #E7E6E7",
",X c gray37",
"<X c #848484",
"1X c #DADADA",
"2X c gray79",
"3X c #B7B7B7",
"4X c #CACACA",
"5X c gray71",
"6X c black",
"7X c gray31",
"8X c #4E4E4E",
"9X c #B4B4B4",
"0X c #403F40",
"qX c gray84",
"wX c #CDCDCD",
"eX c DimGray",
"rX c #6F6F6F",
"tX c #444444",
/* pixels */
"  . X o O + O O O O O O O O O O O O O O O O O @ # # # # # # # # # # # # # # # # # # # # $ % & * ",
". = - ; : : : : : : : : : : : : : : : : : : > , < < < < < < < < < < < < < < < < < < < < 1 2 3 4 ",
"5 6 7 8 9 0 q q q q q 0 w 0 q q q q q q 0 e r # < t y y y y y y y u t t t u y y y y y y t t 2 i ",
"p a s d f     g * h j & k & j h * g       j e # l u y y y y z u x , ; c ; , x u z y y y z t 1 o ",
"v b f n h f f m . M m N B V m M j e f f h * q @ l u y y z z x l 2 t C Z C t 2 l x z y y y y A @ ",
"S D h * f f n F G H J c K c @ L P F m f f   9 # l u y z z x I @ U q Y Y Y 0 T J I x z y y y < @ ",
"v D f * f m R E W Q ! ~ ^ ~ / ( ) _ F m f   q @ l u y z x I ` 4 Y 4 ' ] ' & Y [ { I x z y y < } ",
"v D f * m F | 2 <  .0 k R k w ..< X._ F m   q @ l u z x I ` Y o.O.) X.+.@.) #.$.Y %.X.x z y < } ",
"v D f f . &.W A *.=.  n m n   =.*.< -.P j * q @ l u u l } 4 R ;.:., t x t a >.~ ,.[ <.l u y < } ",
"v D f n M 1.Q  .$.q h f f f h q =.2.( 3.M h q @ l u x 2 4.Y #.>.v y y y y u v >.5.Y 6.K x y < } ",
"v D h   m J ! 0   f f f f f f h g 7.S D h g 0 @ l u , x h [ ) a y y y y y y u a / & 9 u z u < } ",
"v D n 4 N 8.9.F n f f f f f f f n 0.q.1 w.4 0 @ l t ; e.Y ' @.t y y y y y y y t @.r.Y b 1 t < } ",
"v D n 0.B t.^ M m f f * f f f f m R y.+.u.& w @ l x c i.$.p.+.x y y y y y y y x +.a.s.d.f.t < } ",
"v D n 4 V c g.k n f f f f f f f n 0.h.1 w.4 0 # l t ; j.Y k.@.t y y y y y y y t 8.B Y D 1 t < } ",
"v D h   m @ -.l.g h f f * f f h g z.x.C f   q @ l u , t m 4 -.a u y y y y z u A c.0.0 y z u < } ",
"v D v.n M b.( 2.=.q h f f f h 9 $.n.( m.M h q @ l u x 2 U Y M.>.v u y y y u v >.N.Y 5 K x y < } ",
"v D f f j B.) l V.=.g n m n g $.a.c c.C.g * q @ l u u l + [ d Z.>.A t t t A >.A.S.j : < u y < } ",
"v D f * m F D.@.1 n.r & F & C.F.c 8.G.k m   q @ l u z x X.H.Y Y M.c.8.I 8.J.K.Y Y Z.X.x z y < } ",
"v D f * f n F G./ ( x.L.%.P.W ( J.G.R n f   q @ l u y z x I A.  Y M I.U.Y.,.Y f Z.I x z y y < } ",
"v D f * h f m F T.m.C l X.< e.R.C.k m * f   q @ l u y y z x I O E.C.Y Y Y W.Q.> X.x z y y y < } ",
"v D h * h f f m j ,.f &.!.&.* M g m f h h * 0 @ l u y y y z x < 2 z @ p } , 2 < x z y y y y < } ",
"v D f   f * * * f n * ~.& ~.* n f * * * f g 9 # l u y y y y z u x z l ; l z x u z y y y y y < } ",
"v D m h m m m m n n m e e e m m n n m m m h w @ l t u u u u u u u u t x t u u u u u u u u t A } ",
"c.u j.C C C C C C C C C C C C C C C C C C j.b t , 1 1 1 1 1 1 1 1 1 1 1 1 1 1 1 1 1 1 1 1 l < @ ",
"^.A 1 1 1 1 1 1 1 1 1 1 1 1 1 1 1 1 1 1 1 1 l , W C j.C C C C C C j.j.C C C C C C C C C j.j., } ",
"J.a t u u u u u u u t x x x t u u u u u u u x ; /.n n m m m m m m m e e e m m m m m m e h 0 O : ",
"J.a y y y y y z u x , ; c ; , x u z y y y y u ; (.  * * * * * f n g & k 4 g n f * * * f g e O : ",
"J.a y y y z z x 1 +.W p o ).W 2 l x z z y y u ; (.f f h f f e [ R 9 8 r.8 9 M . m f f h * 9 O : ",
"J.a y y z z t I D % n Y Y Y e _.# I x z y y u ; (.f f f f m F &.`.O @.'.@.<.].G F n * f   9 O : ",
"J.a y y z t I = 0.Y j [.{.}.[ Y 4 ` I x z y u ; /.* f f n R |.x  X^..XXXZ.J.( x.oXF n f   9 O : ",
"J.a y z x I = Y d L x.X.2 X.v 3.o.Y OXI x z u ; /.f f m F |.K a 6.9 F R k q 5 , +.+XF e   9 O : ",
"J.a y u 1 @X0.F L.:., x x t , :.;.M ~.J l u u ; (.f h . &.W a }.=.* m m m   =.}.A S B.j * 9 O : ",
"J.a y x 2 #XY O.>.v y z y z y v >.$XY U K x u ; /.f m M 1.Q T $.q h f f f h q =.E.( L M h 9 O : ",
"J.a u , W * . v , y y y y y y u a / & e u z t ; (.f * m <.c.0   h f * f f f h   l.-.# %Xg q O : ",
"J.a t ; e.Y &XX.t y y y y y y y t 8.r.Y D 1 x ; (.h 4 N 8.9.k n f f f f f * f n k *X; =X4 q O : ",
"J.a t c -X$.] +.x y y y y y y y x I _ s.;Xf.x ; (.n & I.K = R m f f f f f f f m R ` +.u.0.0 O : ",
"J.a t ; j.Y k.@.t y y y y y y y t 8.I.Y @X1 x ; /.h ~.V c g.k m f f f f f f f m 0.h.1 w.4 q O : ",
"J.a u , u m 4 / a u z y y y z u A J.k l.z z t ; (.f * h @X) l.g h f f f f f h g z.W C f   q O : ",
"J.a y x K 6.Y n.>.v u y y y u x.>.E.Y E.K x u ; (.* m M 3.( n.$.9 h f f f h 9 $.5.( R.M h 9 O : ",
"J.a y u < O . S..X:.A t t t < :.{ =.  ^.< u u ; (.f h j T.! ; D.=.:Xn >Xn j =.] 8.J.C.g * 9 O : ",
"J.a y z x X.,XY Y N.> c X.c : E.Y $.g.X.x z u ; (.* * e F V.c f.<XW.4 F 4 1X<X@.f.V.F e   9 O : ",
"^.a y y z x I Z.f Y S.2X3X4Xo.Y m g.I x z y u ; /.f f f m k 5XJ.6Xt 7XA.8Xu ( ^.9XR m h   9 O : ",
"^.a y y y z x X.> N.P Y Y Y B.F.J.X.x z y y u ; 0Xf f f f m k C.$Xp a 8.a p 5.z.k n * f   9 O : ",
"^.a y y y y z x < 2 a <.j.<.a 2 A x z y y y u ; /.f f h f f m g ,.* qXwXB.g M g m f f h f e + : ",
"p l u z y y y z u x z l ; l y x u z y y y y u ; (.            * h   ~.& ~.  h f *     f S.!.; o ",
"..K x u y y y y y y u t t t u y y y y y y y t 1 (.m e e e e e e e e q q 9 e e e e e 9 m !.Z - 4.",
". eXK l A A A A A A A A A A A A A A A A A A A < y <.<.<.<.<.<.<.<.<.<.<.<.<.<.<.<.<.<.<.1 - rX[ ",
"  [ 5 tXJ J J J J J J J J J J J J J J J J J J J <.^.^.^.^.^.^.^.^.^.^.^.^.^.^.^.^.^.^.^.i._.[   "
};
